<svg xmlns="http://www.w3.org/2000/svg" viewBox="0 0 100 100">
  <defs>
    <linearGradient id="grad1" x1="0%" y1="0%" x2="100%" y2="100%">
      <stop offset="0%" style="stop-color:#667eea;stop-opacity:1" />
      <stop offset="100%" style="stop-color:#764ba2;stop-opacity:1" />
    </linearGradient>
  </defs>
  
  <!-- Background Circle -->
  <circle cx="50" cy="50" r="48" fill="url(#grad1)"/>
  
  <!-- Game Controller Icon -->
  <g fill="white">
    <!-- Controller Body -->
    <path d="M50 35 C35 35, 25 40, 25 50 C25 60, 30 65, 35 65 L40 65 C42 65, 43 63, 43 61 L43 55 C43 53, 45 51, 47 51 L53 51 C55 51, 57 53, 57 55 L57 61 C57 63, 58 65, 60 65 L65 65 C70 65, 75 60, 75 50 C75 40, 65 35, 50 35 Z"/>
    
    <!-- D-Pad Left -->
    <rect x="33" y="46" width="8" height="3" rx="1"/>
    
    <!-- D-Pad Up -->
    <rect x="36.5" y="42.5" width="3" height="8" rx="1"/>
    
    <!-- Buttons -->
    <circle cx="62" cy="45" r="2.5"/>
    <circle cx="68" cy="45" r="2.5"/>
    <circle cx="65" cy="48" r="2.5"/>
    <circle cx="65" cy="42" r="2.5"/>
  </g>
  
  <!-- Chart Line -->
  <path d="M20 75 L30 70 L40 72 L50 65 L60 68 L70 62 L80 65" 
        stroke="white" stroke-width="2" fill="none" 
        stroke-linecap="round" stroke-linejoin="round" opacity="0.8"/>
</svg>
